<?xml version="1.0" encoding="utf-8"?>
<!-- Generator: Adobe Illustrator 26.5.0, SVG Export Plug-In . SVG Version: 6.00 Build 0)  -->
<svg version="1.1" id="Calque_1" xmlns="http://www.w3.org/2000/svg" xmlns:xlink="http://www.w3.org/1999/xlink" x="0px" y="0px"
	 viewBox="0 0 3506.3 4100" style="enable-background:new 0 0 3506.3 4100;" xml:space="preserve">
<style type="text/css">
	.st0{fill:url(#SVGID_1_);}
	.st1{fill:url(#SVGID_00000046303686191524739530000015189083700605461638_);}
	.st2{fill:url(#SVGID_00000092441311947112368410000007344008448143643281_);}
	.st3{fill:url(#SVGID_00000129182520274229093860000005288698800584652707_);}
</style>
<g>
	
		<linearGradient id="SVGID_1_" gradientUnits="userSpaceOnUse" x1="1939.6011" y1="1608.199" x2="1686.6477" y2="904.3283" gradientTransform="matrix(1 0 0 -1 0 4150)">
		<stop  offset="0" style="stop-color:#F2F2F2"/>
		<stop  offset="1" style="stop-color:#B3B3B3"/>
	</linearGradient>
	<path class="st0" d="M1082.8,49.8L1082.8,49.8C952,49.8,837.4,138.1,804,264.5L78.5,3010.7c-138.6,524.9,257,1038.8,799.9,1038.8
		h2271.7c130.8,0,245.4-88.2,278.8-214.6l0,0c132.8-502.7-246.2-995.1-766.3-995.1h-1269l469.5-1776.5
		C1998.3,551.1,1612.3,49.8,1082.8,49.8z"/>
	
		<linearGradient id="SVGID_00000075853845139537077740000003466738200232486580_" gradientUnits="userSpaceOnUse" x1="2398.7661" y1="1317.3777" x2="2046.8304" y2="-68.3678" gradientTransform="matrix(1 0 0 -1 0 4150)">
		<stop  offset="0" style="stop-color:#F2F2F2"/>
		<stop  offset="1" style="stop-color:#B3B3B3"/>
	</linearGradient>
	<path style="fill:url(#SVGID_00000075853845139537077740000003466738200232486580_);" d="M3429,3834.8L3429,3834.8
		c22.4-85,30-169.8,25-251.8c-54.6-394.5-526.9-506.3-1083-283c-557.3,223.6-1103.4,29.4-977.1-460.1l-284,64.2l-110,377.7
		l51.4,513.3l145.8,254.8h1953.3C3280.9,4049.4,3395.6,3961.2,3429,3834.8z"/>
	
		<linearGradient id="SVGID_00000088824982396517609990000000709993690848615593_" gradientUnits="userSpaceOnUse" x1="170.4211" y1="1311.2784" x2="3843.7461" y2="3290.9146" gradientTransform="matrix(1 0 0 -1 0 4150)">
		<stop  offset="0" style="stop-color:#F2F2F2"/>
		<stop  offset="1" style="stop-color:#B3B3B3"/>
	</linearGradient>
	<path style="fill:url(#SVGID_00000088824982396517609990000000709993690848615593_);" d="M1393.7,2839.7l469.5-1776.5
		C1998.3,551.1,1612.3,49.8,1082.8,49.8l0,0C952,49.8,837.6,138.1,804,264.5L78.5,3010.7c-138.6,524.9,257,1038.8,799.9,1038.8H2259
		C1489.1,4049.4,1247.2,3389.6,1393.7,2839.7z"/>
	
		<linearGradient id="SVGID_00000165201949944708759720000014676721976651360660_" gradientUnits="userSpaceOnUse" x1="129.5793" y1="2172.9031" x2="1361.353" y2="2040.9271" gradientTransform="matrix(1 0 0 -1 0 4150)">
		<stop  offset="0" style="stop-color:#F2F2F2"/>
		<stop  offset="1" style="stop-color:#B3B3B3"/>
	</linearGradient>
	<path style="fill:url(#SVGID_00000165201949944708759720000014676721976651360660_);" d="M907.2,2201.8
		c496.3-1097.6,581.9-1660.4,68.4-2131.1C893,103.9,827.8,174.3,804,264.5L78.5,3010.7c-138.6,524.9,257,1038.8,799.9,1038.8H2259
		C50.7,4049.4,785.4,2471.2,907.2,2201.8z"/>
</g>
</svg>
