<?xml version="1.0" encoding="utf-8"?>
<!-- Generator: Adobe Illustrator 26.5.0, SVG Export Plug-In . SVG Version: 6.00 Build 0)  -->
<svg version="1.1" id="Calque_1" xmlns="http://www.w3.org/2000/svg" xmlns:xlink="http://www.w3.org/1999/xlink" x="0px" y="0px"
	 viewBox="0 0 3506.3 4100" style="enable-background:new 0 0 3506.3 4100;" xml:space="preserve">
<style type="text/css">
	.st0{fill:url(#SVGID_1_);}
	.st1{fill:url(#SVGID_00000029048159919997778600000010757444523667689406_);}
	.st2{fill:url(#SVGID_00000099643760697011626740000013018240052040285852_);}
	.st3{fill:url(#SVGID_00000127733391129066662000000002571310872017066923_);}
</style>
<g>
	
		<linearGradient id="SVGID_1_" gradientUnits="userSpaceOnUse" x1="1940.4979" y1="2491.8025" x2="1687.5438" y2="3195.6731" gradientTransform="matrix(1 0 0 1 0 50)">
		<stop  offset="0" style="stop-color:#0094C6"/>
		<stop  offset="1" style="stop-color:#005E7C"/>
	</linearGradient>
	<path class="st0" d="M1083.7,49.8L1083.7,49.8c-130.8,0-245.4,88.2-278.8,214.6L79.4,3010.7c-138.6,524.9,257,1038.8,799.9,1038.8
		H3151c130.8,0,245.4-88.2,278.8-214.6l0,0c132.8-502.7-246.2-995.1-766.3-995.1h-1269L1863.8,1063
		C1999.2,551.1,1613.2,49.8,1083.7,49.8z"/>
	
		<linearGradient id="SVGID_00000146458072047779416390000003014835463212069024_" gradientUnits="userSpaceOnUse" x1="2399.5942" y1="2782.6062" x2="2047.6588" y2="4168.3521" gradientTransform="matrix(1 0 0 1 0 50)">
		<stop  offset="0" style="stop-color:#0094C6"/>
		<stop  offset="1" style="stop-color:#005E7C"/>
	</linearGradient>
	<path style="fill:url(#SVGID_00000146458072047779416390000003014835463212069024_);" d="M3429.9,3834.8L3429.9,3834.8
		c22.4-85,30-169.8,25-251.8c-54.6-394.5-526.9-506.3-1083-283c-557.3,223.6-1103.4,29.4-977.1-460.1l-284,64.2l-110,377.7
		l51.4,513.3l145.8,254.8h1953.3C3281.8,4049.4,3396.5,3961.2,3429.9,3834.8z"/>
	
		<linearGradient id="SVGID_00000005251539349847099920000018296108895764982666_" gradientUnits="userSpaceOnUse" x1="171.307" y1="2788.7097" x2="3844.6328" y2="809.0732" gradientTransform="matrix(1 0 0 1 0 50)">
		<stop  offset="0" style="stop-color:#0094C6"/>
		<stop  offset="1" style="stop-color:#005E7C"/>
	</linearGradient>
	<path style="fill:url(#SVGID_00000005251539349847099920000018296108895764982666_);" d="M1394.6,2839.7L1863.8,1063
		C1999.2,551.1,1613.2,49.8,1083.7,49.8l0,0c-130.8,0-245.2,88.2-278.8,214.6L79.4,3010.7c-138.6,524.9,257,1038.8,799.9,1038.8
		h1380.6C1490,4049.4,1248.1,3389.6,1394.6,2839.7z"/>
	
		<linearGradient id="SVGID_00000006671693630340804490000015042649364551543201_" gradientUnits="userSpaceOnUse" x1="130.4779" y1="1927.0392" x2="1362.2517" y2="2059.0149" gradientTransform="matrix(1 0 0 1 0 50)">
		<stop  offset="0" style="stop-color:#0094C6"/>
		<stop  offset="1" style="stop-color:#005E7C"/>
	</linearGradient>
	<path style="fill:url(#SVGID_00000006671693630340804490000015042649364551543201_);" d="M908.1,2201.8
		c496.5-1097.6,582.1-1660.6,68.6-2131.1c-82.8,33.2-147.8,103.6-171.6,193.8L79.4,3010.7c-138.6,524.9,257,1038.8,799.9,1038.8
		h1380.6C51.6,4049.4,786.1,2471.2,908.1,2201.8z"/>
</g>
</svg>
