<?xml version="1.0" encoding="utf-8"?>
<!-- Generator: Adobe Illustrator 26.5.0, SVG Export Plug-In . SVG Version: 6.00 Build 0)  -->
<svg version="1.1" id="Calque_1" xmlns="http://www.w3.org/2000/svg" xmlns:xlink="http://www.w3.org/1999/xlink" x="0px" y="0px"
	 viewBox="0 0 3506.3 4100" style="enable-background:new 0 0 3506.3 4100;" xml:space="preserve">
<style type="text/css">
	.st0{fill:url(#SVGID_1_);}
	.st1{fill:url(#SVGID_00000136372373234270876150000011617916126429496755_);}
	.st2{fill:url(#SVGID_00000081614288606360739360000010834907254324228763_);}
	.st3{fill:url(#SVGID_00000139267433404808478190000000279095913167563925_);}
</style>
<g>
	
		<linearGradient id="SVGID_1_" gradientUnits="userSpaceOnUse" x1="1940.485" y1="1608.2039" x2="1687.5312" y2="904.3331" gradientTransform="matrix(1 0 0 -1 0 4150)">
		<stop  offset="0" style="stop-color:#253849"/>
		<stop  offset="1" style="stop-color:#040F16"/>
	</linearGradient>
	<path class="st0" d="M1083.7,49.8L1083.7,49.8c-130.8,0-245.4,88.2-278.8,214.6L79.4,3010.7c-138.6,524.9,257,1038.8,799.9,1038.8
		H3151c130.8,0,245.4-88.2,278.8-214.6l0,0c132.8-502.7-246.2-995.1-766.3-995.1h-1269L1863.8,1063
		C1999.2,551.1,1613.2,49.8,1083.7,49.8z"/>
	
		<linearGradient id="SVGID_00000078018512321848354460000000865915333308824969_" gradientUnits="userSpaceOnUse" x1="2399.6655" y1="1317.3767" x2="2047.7303" y2="-68.3686" gradientTransform="matrix(1 0 0 -1 0 4150)">
		<stop  offset="0" style="stop-color:#253849"/>
		<stop  offset="1" style="stop-color:#040F16"/>
	</linearGradient>
	<path style="fill:url(#SVGID_00000078018512321848354460000000865915333308824969_);" d="M3429.9,3834.8L3429.9,3834.8
		c22.4-85,30-169.8,25-251.8c-54.6-394.5-526.9-506.3-1083-283c-557.3,223.6-1103.4,29.4-977.1-460.1l-284,64.2l-110,377.7
		l51.4,513.3l145.8,254.8h1953.3C3281.8,4049.4,3396.5,3961.2,3429.9,3834.8z"/>
	
		<linearGradient id="SVGID_00000070801773274797772600000004720965414896561338_" gradientUnits="userSpaceOnUse" x1="171.3122" y1="1311.2892" x2="3844.6377" y2="3290.9263" gradientTransform="matrix(1 0 0 -1 0 4150)">
		<stop  offset="0" style="stop-color:#253849"/>
		<stop  offset="1" style="stop-color:#040F16"/>
	</linearGradient>
	<path style="fill:url(#SVGID_00000070801773274797772600000004720965414896561338_);" d="M1394.6,2839.7L1863.8,1063
		C1999.2,551.1,1613.2,49.8,1083.7,49.8l0,0c-130.8,0-245.2,88.2-278.8,214.6L79.4,3010.7c-138.6,524.9,257,1038.8,799.9,1038.8
		h1380.6C1490,4049.4,1248.1,3389.6,1394.6,2839.7z"/>
	
		<linearGradient id="SVGID_00000156546045499183449110000003586111033260138929_" gradientUnits="userSpaceOnUse" x1="130.4775" y1="2172.9141" x2="1362.2512" y2="2040.9379" gradientTransform="matrix(1 0 0 -1 0 4150)">
		<stop  offset="0" style="stop-color:#253849"/>
		<stop  offset="1" style="stop-color:#040F16"/>
	</linearGradient>
	<path style="fill:url(#SVGID_00000156546045499183449110000003586111033260138929_);" d="M908.1,2201.8
		c496.5-1097.6,582.1-1660.6,68.6-2131.1c-82.8,33.2-147.8,103.6-171.6,193.8L79.4,3010.7c-138.6,524.9,257,1038.8,799.9,1038.8
		h1380.6C51.6,4049.4,786.3,2471.2,908.1,2201.8z"/>
</g>
</svg>
